<svg width="25" height="21" viewBox="0 0 25 21" fill="none" xmlns="http://www.w3.org/2000/svg">
<path d="M23.341 8.84958C22.975 8.84958 22.6821 9.14245 22.6821 9.50853V15.5026C22.6821 17.1329 21.3544 18.4557 19.729 18.4557H5.27101C3.6407 18.4557 2.31791 17.128 2.31791 15.5026V9.41091C2.31791 9.04482 2.02504 8.75195 1.65896 8.75195C1.29287 8.75195 1 9.04482 1 9.41091V15.5026C1 17.8602 2.91829 19.7736 5.27101 19.7736H19.729C22.0866 19.7736 24 17.8553 24 15.5026V9.50853C24 9.14733 23.7071 8.84958 23.341 8.84958Z" fill="#037486" stroke="#037486" stroke-width="0.5"/>
<path d="M12.0368 17.0834C12.1638 17.2103 12.3346 17.2786 12.5006 17.2786C12.6665 17.2786 12.8374 17.2152 12.9643 17.0834L17.1523 12.8954C17.411 12.6367 17.411 12.2218 17.1523 11.9631C16.8936 11.7044 16.4787 11.7044 16.22 11.9631L13.1595 15.0284V1.65896C13.1595 1.29287 12.8666 1 12.5006 1C12.1345 1 11.8416 1.29287 11.8416 1.65896V15.0284L8.77623 11.9631C8.51753 11.7044 8.10263 11.7044 7.84393 11.9631C7.58523 12.2218 7.58523 12.6367 7.84393 12.8954L12.0368 17.0834Z" fill="#037486" stroke="#037486" stroke-width="0.5"/>
</svg>
